<?xml version="1.0" standalone="no"?>
<!DOCTYPE svg PUBLIC "-//W3C//DTD SVG 20010904//EN"
 "http://www.w3.org/TR/2001/REC-SVG-20010904/DTD/svg10.dtd">
<svg version="1.0" xmlns="http://www.w3.org/2000/svg"
 width="168.000000pt" height="168.000000pt" viewBox="0 0 168.000000 168.000000"
 preserveAspectRatio="xMidYMid meet">
<metadata>
Created by potrace 1.11, written by Peter Selinger 2001-2013
</metadata>
<g transform="translate(0.000000,168.000000) scale(0.100000,-0.100000)"
fill="#000000" stroke="none">
<path d="M320 1301 c-120 -39 -209 -134 -249 -269 -25 -82 -22 -236 6 -314 75
-204 264 -303 459 -238 116 39 206 145 238 282 29 122 10 275 -47 369 -70 118
-162 172 -297 176 -47 1 -96 -1 -110 -6z m206 -112 c85 -40 136 -150 137 -299
2 -233 -121 -366 -303 -325 -138 31 -210 206 -175 425 29 182 183 272 341 199z"/>
<path d="M922 1278 c-7 -7 -12 -24 -12 -40 0 -29 23 -48 59 -48 21 0 21 -2 19
-307 -2 -235 -6 -307 -15 -306 -7 2 -24 -2 -38 -7 -19 -7 -25 -17 -25 -38 0
-47 14 -52 147 -52 108 0 125 2 142 19 20 20 19 55 -2 68 -6 3 -29 8 -51 9
-23 1 -43 3 -46 3 -3 1 -5 63 -4 139 l0 137 164 0 165 0 0 -125 c0 -69 -1
-132 -3 -140 -2 -10 -17 -16 -49 -17 -25 -1 -50 -6 -55 -11 -12 -12 -14 -59
-3 -70 12 -12 267 -12 282 0 17 13 17 67 1 73 -7 3 -24 6 -38 8 l-25 4 -3 306
c-2 269 0 307 13 307 8 0 16 -1 18 -2 1 -1 12 4 25 11 24 13 30 59 10 79 -8 8
-54 12 -139 12 -118 0 -129 -2 -142 -21 -15 -21 -12 -55 6 -66 5 -3 28 -8 51
-11 23 -2 43 -8 46 -13 3 -4 5 -56 5 -116 l-1 -108 -162 0 c-138 0 -162 2
-163 15 -5 94 -2 213 6 216 11 4 62 12 82 13 7 1 17 10 23 22 9 16 8 26 -5 45
-15 23 -19 24 -143 24 -86 0 -132 -4 -140 -12z"/>
</g>
</svg>
